<svg xmlns="http://www.w3.org/2000/svg" width="680" height="210" viewBox="0 0 680 210" font-family="-apple-system,Segoe UI,Roboto,Helvetica,Arial,sans-serif"><rect width="680" height="210" fill="#ffffff"/><text x="40" y="16" font-size="13" font-weight="700" fill="#1b2430">Papers per year</text><line x1="40" y1="182" x2="670" y2="182" stroke="#dde5ee"/><rect x="40.0" y="177.9" width="33.3" height="4.1" fill="#0b6bcb" rx="2"><title>2004: 1</title></rect><text x="56.6" y="174.9" font-size="8" fill="#5b6b7c" text-anchor="middle">1</text><text x="56.6" y="196.0" font-size="8" fill="#5b6b7c" text-anchor="middle">04</text><rect x="77.3" y="177.9" width="33.3" height="4.1" fill="#0b6bcb" rx="2"><title>2005: 1</title></rect><text x="93.9" y="174.9" font-size="8" fill="#5b6b7c" text-anchor="middle">1</text><text x="93.9" y="196.0" font-size="8" fill="#5b6b7c" text-anchor="middle">05</text><rect x="114.6" y="169.8" width="33.3" height="12.2" fill="#0b6bcb" rx="2"><title>2012: 3</title></rect><text x="131.2" y="166.8" font-size="8" fill="#5b6b7c" text-anchor="middle">3</text><text x="131.2" y="196.0" font-size="8" fill="#5b6b7c" text-anchor="middle">12</text><rect x="151.9" y="177.9" width="33.3" height="4.1" fill="#0b6bcb" rx="2"><title>2013: 1</title></rect><text x="168.5" y="174.9" font-size="8" fill="#5b6b7c" text-anchor="middle">1</text><text x="168.5" y="196.0" font-size="8" fill="#5b6b7c" text-anchor="middle">13</text><rect x="189.2" y="173.9" width="33.3" height="8.1" fill="#0b6bcb" rx="2"><title>2014: 2</title></rect><text x="205.8" y="170.9" font-size="8" fill="#5b6b7c" text-anchor="middle">2</text><text x="205.8" y="196.0" font-size="8" fill="#5b6b7c" text-anchor="middle">14</text><rect x="226.5" y="177.9" width="33.3" height="4.1" fill="#0b6bcb" rx="2"><title>2015: 1</title></rect><text x="243.1" y="174.9" font-size="8" fill="#5b6b7c" text-anchor="middle">1</text><text x="243.1" y="196.0" font-size="8" fill="#5b6b7c" text-anchor="middle">15</text><rect x="263.8" y="173.9" width="33.3" height="8.1" fill="#0b6bcb" rx="2"><title>2016: 2</title></rect><text x="280.4" y="170.9" font-size="8" fill="#5b6b7c" text-anchor="middle">2</text><text x="280.4" y="196.0" font-size="8" fill="#5b6b7c" text-anchor="middle">16</text><rect x="301.1" y="161.7" width="33.3" height="20.3" fill="#0b6bcb" rx="2"><title>2017: 5</title></rect><text x="317.7" y="158.7" font-size="8" fill="#5b6b7c" text-anchor="middle">5</text><text x="317.7" y="196.0" font-size="8" fill="#5b6b7c" text-anchor="middle">17</text><rect x="338.4" y="161.7" width="33.3" height="20.3" fill="#0b6bcb" rx="2"><title>2018: 5</title></rect><text x="355.0" y="158.7" font-size="8" fill="#5b6b7c" text-anchor="middle">5</text><text x="355.0" y="196.0" font-size="8" fill="#5b6b7c" text-anchor="middle">18</text><rect x="375.6" y="169.8" width="33.3" height="12.2" fill="#0b6bcb" rx="2"><title>2019: 3</title></rect><text x="392.3" y="166.8" font-size="8" fill="#5b6b7c" text-anchor="middle">3</text><text x="392.3" y="196.0" font-size="8" fill="#5b6b7c" text-anchor="middle">19</text><rect x="412.9" y="149.6" width="33.3" height="32.4" fill="#0b6bcb" rx="2"><title>2020: 8</title></rect><text x="429.6" y="146.6" font-size="8" fill="#5b6b7c" text-anchor="middle">8</text><text x="429.6" y="196.0" font-size="8" fill="#5b6b7c" text-anchor="middle">20</text><rect x="450.2" y="145.5" width="33.3" height="36.5" fill="#0b6bcb" rx="2"><title>2021: 9</title></rect><text x="466.9" y="142.5" font-size="8" fill="#5b6b7c" text-anchor="middle">9</text><text x="466.9" y="196.0" font-size="8" fill="#5b6b7c" text-anchor="middle">21</text><rect x="487.5" y="117.2" width="33.3" height="64.8" fill="#0b6bcb" rx="2"><title>2022: 16</title></rect><text x="504.2" y="114.2" font-size="8" fill="#5b6b7c" text-anchor="middle">16</text><text x="504.2" y="196.0" font-size="8" fill="#5b6b7c" text-anchor="middle">22</text><rect x="524.8" y="84.8" width="33.3" height="97.2" fill="#0b6bcb" rx="2"><title>2023: 24</title></rect><text x="541.5" y="81.8" font-size="8" fill="#5b6b7c" text-anchor="middle">24</text><text x="541.5" y="196.0" font-size="8" fill="#5b6b7c" text-anchor="middle">23</text><rect x="562.1" y="117.2" width="33.3" height="64.8" fill="#0b6bcb" rx="2"><title>2024: 16</title></rect><text x="578.8" y="114.2" font-size="8" fill="#5b6b7c" text-anchor="middle">16</text><text x="578.8" y="196.0" font-size="8" fill="#5b6b7c" text-anchor="middle">24</text><rect x="599.4" y="24.0" width="33.3" height="158.0" fill="#0b6bcb" rx="2"><title>2025: 39</title></rect><text x="616.1" y="21.0" font-size="8" fill="#5b6b7c" text-anchor="middle">39</text><text x="616.1" y="196.0" font-size="8" fill="#5b6b7c" text-anchor="middle">25</text><rect x="636.7" y="117.2" width="33.3" height="64.8" fill="#0b6bcb" rx="2"><title>2026: 16</title></rect><text x="653.4" y="114.2" font-size="8" fill="#5b6b7c" text-anchor="middle">16</text><text x="653.4" y="196.0" font-size="8" fill="#5b6b7c" text-anchor="middle">26</text></svg>