<svg xmlns="http://www.w3.org/2000/svg" width="680" height="210" viewBox="0 0 680 210" font-family="-apple-system,Segoe UI,Roboto,Helvetica,Arial,sans-serif"><rect width="680" height="210" fill="#ffffff"/><text x="40" y="16" font-size="13" font-weight="700" fill="#1b2430">Papers per year</text><line x1="40" y1="182" x2="670" y2="182" stroke="#dde5ee"/><rect x="40.0" y="179.5" width="26.2" height="2.5" fill="#0b6bcb" rx="2"><title>2004: 1</title></rect><text x="53.1" y="176.5" font-size="8" fill="#5b6b7c" text-anchor="middle">1</text><text x="53.1" y="196.0" font-size="8" fill="#5b6b7c" text-anchor="middle">04</text><rect x="70.2" y="179.5" width="26.2" height="2.5" fill="#0b6bcb" rx="2"><title>2005: 1</title></rect><text x="83.3" y="176.5" font-size="8" fill="#5b6b7c" text-anchor="middle">1</text><text x="83.3" y="196.0" font-size="8" fill="#5b6b7c" text-anchor="middle">05</text><rect x="100.4" y="179.5" width="26.2" height="2.5" fill="#0b6bcb" rx="2"><title>2006: 1</title></rect><text x="113.5" y="176.5" font-size="8" fill="#5b6b7c" text-anchor="middle">1</text><text x="113.5" y="196.0" font-size="8" fill="#5b6b7c" text-anchor="middle">06</text><rect x="130.6" y="179.5" width="26.2" height="2.5" fill="#0b6bcb" rx="2"><title>2007: 1</title></rect><text x="143.7" y="176.5" font-size="8" fill="#5b6b7c" text-anchor="middle">1</text><text x="143.7" y="196.0" font-size="8" fill="#5b6b7c" text-anchor="middle">07</text><rect x="160.8" y="179.5" width="26.2" height="2.5" fill="#0b6bcb" rx="2"><title>2009: 1</title></rect><text x="173.9" y="176.5" font-size="8" fill="#5b6b7c" text-anchor="middle">1</text><text x="173.9" y="196.0" font-size="8" fill="#5b6b7c" text-anchor="middle">09</text><rect x="191.0" y="176.9" width="26.2" height="5.1" fill="#0b6bcb" rx="2"><title>2011: 2</title></rect><text x="204.0" y="173.9" font-size="8" fill="#5b6b7c" text-anchor="middle">2</text><text x="204.0" y="196.0" font-size="8" fill="#5b6b7c" text-anchor="middle">11</text><rect x="221.1" y="174.4" width="26.2" height="7.6" fill="#0b6bcb" rx="2"><title>2012: 3</title></rect><text x="234.2" y="171.4" font-size="8" fill="#5b6b7c" text-anchor="middle">3</text><text x="234.2" y="196.0" font-size="8" fill="#5b6b7c" text-anchor="middle">12</text><rect x="251.3" y="179.5" width="26.2" height="2.5" fill="#0b6bcb" rx="2"><title>2013: 1</title></rect><text x="264.4" y="176.5" font-size="8" fill="#5b6b7c" text-anchor="middle">1</text><text x="264.4" y="196.0" font-size="8" fill="#5b6b7c" text-anchor="middle">13</text><rect x="281.5" y="176.9" width="26.2" height="5.1" fill="#0b6bcb" rx="2"><title>2014: 2</title></rect><text x="294.6" y="173.9" font-size="8" fill="#5b6b7c" text-anchor="middle">2</text><text x="294.6" y="196.0" font-size="8" fill="#5b6b7c" text-anchor="middle">14</text><rect x="311.7" y="179.5" width="26.2" height="2.5" fill="#0b6bcb" rx="2"><title>2015: 1</title></rect><text x="324.8" y="176.5" font-size="8" fill="#5b6b7c" text-anchor="middle">1</text><text x="324.8" y="196.0" font-size="8" fill="#5b6b7c" text-anchor="middle">15</text><rect x="341.9" y="176.9" width="26.2" height="5.1" fill="#0b6bcb" rx="2"><title>2016: 2</title></rect><text x="355.0" y="173.9" font-size="8" fill="#5b6b7c" text-anchor="middle">2</text><text x="355.0" y="196.0" font-size="8" fill="#5b6b7c" text-anchor="middle">16</text><rect x="372.1" y="169.3" width="26.2" height="12.7" fill="#0b6bcb" rx="2"><title>2017: 5</title></rect><text x="385.2" y="166.3" font-size="8" fill="#5b6b7c" text-anchor="middle">5</text><text x="385.2" y="196.0" font-size="8" fill="#5b6b7c" text-anchor="middle">17</text><rect x="402.3" y="169.3" width="26.2" height="12.7" fill="#0b6bcb" rx="2"><title>2018: 5</title></rect><text x="415.4" y="166.3" font-size="8" fill="#5b6b7c" text-anchor="middle">5</text><text x="415.4" y="196.0" font-size="8" fill="#5b6b7c" text-anchor="middle">18</text><rect x="432.5" y="174.4" width="26.2" height="7.6" fill="#0b6bcb" rx="2"><title>2019: 3</title></rect><text x="445.6" y="171.4" font-size="8" fill="#5b6b7c" text-anchor="middle">3</text><text x="445.6" y="196.0" font-size="8" fill="#5b6b7c" text-anchor="middle">19</text><rect x="462.7" y="161.6" width="26.2" height="20.4" fill="#0b6bcb" rx="2"><title>2020: 8</title></rect><text x="475.8" y="158.6" font-size="8" fill="#5b6b7c" text-anchor="middle">8</text><text x="475.8" y="196.0" font-size="8" fill="#5b6b7c" text-anchor="middle">20</text><rect x="492.9" y="159.1" width="26.2" height="22.9" fill="#0b6bcb" rx="2"><title>2021: 9</title></rect><text x="506.0" y="156.1" font-size="8" fill="#5b6b7c" text-anchor="middle">9</text><text x="506.0" y="196.0" font-size="8" fill="#5b6b7c" text-anchor="middle">21</text><rect x="523.0" y="141.2" width="26.2" height="40.8" fill="#0b6bcb" rx="2"><title>2022: 16</title></rect><text x="536.1" y="138.2" font-size="8" fill="#5b6b7c" text-anchor="middle">16</text><text x="536.1" y="196.0" font-size="8" fill="#5b6b7c" text-anchor="middle">22</text><rect x="553.2" y="120.8" width="26.2" height="61.2" fill="#0b6bcb" rx="2"><title>2023: 24</title></rect><text x="566.3" y="117.8" font-size="8" fill="#5b6b7c" text-anchor="middle">24</text><text x="566.3" y="196.0" font-size="8" fill="#5b6b7c" text-anchor="middle">23</text><rect x="583.4" y="141.2" width="26.2" height="40.8" fill="#0b6bcb" rx="2"><title>2024: 16</title></rect><text x="596.5" y="138.2" font-size="8" fill="#5b6b7c" text-anchor="middle">16</text><text x="596.5" y="196.0" font-size="8" fill="#5b6b7c" text-anchor="middle">24</text><rect x="613.6" y="24.0" width="26.2" height="158.0" fill="#0b6bcb" rx="2"><title>2025: 62</title></rect><text x="626.7" y="21.0" font-size="8" fill="#5b6b7c" text-anchor="middle">62</text><text x="626.7" y="196.0" font-size="8" fill="#5b6b7c" text-anchor="middle">25</text><rect x="643.8" y="85.2" width="26.2" height="96.8" fill="#0b6bcb" rx="2"><title>2026: 38</title></rect><text x="656.9" y="82.2" font-size="8" fill="#5b6b7c" text-anchor="middle">38</text><text x="656.9" y="196.0" font-size="8" fill="#5b6b7c" text-anchor="middle">26</text></svg>